<mxfile host="app.diagrams.net" agent="Mozilla/5.0 (Windows NT 10.0; Win64; x64) AppleWebKit/537.36 (KHTML, like Gecko) Chrome/134.0.0.0 Safari/537.36 Edg/134.0.0.0" version="26.2.4">
  <diagram id="prtHgNgQTEPvFCAcTncT" name="Page-1">
    <mxGraphModel dx="832" dy="1738" grid="1" gridSize="10" guides="1" tooltips="1" connect="1" arrows="1" fold="1" page="1" pageScale="1" pageWidth="827" pageHeight="1169" math="0" shadow="0">
      <root>
        <mxCell id="0" />
        <mxCell id="1" parent="0" />
        <mxCell id="dNxyNK7c78bLwvsdeMH5-11" value="Orgchart" style="swimlane;html=1;startSize=20;horizontal=1;containerType=tree;glass=0;" parent="1" vertex="1">
          <mxGeometry x="10" y="-30" width="720" height="380" as="geometry" />
        </mxCell>
        <mxCell id="NaS09oquVCrZTC2XUynY-7" value="高层领导" style="swimlane;fillColor=#bac8d3;strokeColor=#23445d;" vertex="1" parent="dNxyNK7c78bLwvsdeMH5-11">
          <mxGeometry x="295" y="50" width="120" height="50" as="geometry" />
        </mxCell>
        <mxCell id="NaS09oquVCrZTC2XUynY-12" value="岳晴天" style="text;html=1;align=center;verticalAlign=middle;whiteSpace=wrap;rounded=0;" vertex="1" parent="NaS09oquVCrZTC2XUynY-7">
          <mxGeometry x="30" y="20" width="60" height="30" as="geometry" />
        </mxCell>
        <mxCell id="NaS09oquVCrZTC2XUynY-19" value="产品和质量保障" style="swimlane;fillColor=#b0e3e6;strokeColor=#0e8088;" vertex="1" parent="dNxyNK7c78bLwvsdeMH5-11">
          <mxGeometry x="175" y="140" width="120" height="50" as="geometry" />
        </mxCell>
        <mxCell id="NaS09oquVCrZTC2XUynY-20" value="彭子曦" style="text;html=1;align=center;verticalAlign=middle;whiteSpace=wrap;rounded=0;" vertex="1" parent="NaS09oquVCrZTC2XUynY-19">
          <mxGeometry x="30" y="20" width="60" height="30" as="geometry" />
        </mxCell>
        <mxCell id="NaS09oquVCrZTC2XUynY-17" value="基础架构师" style="swimlane;fillColor=#fad7ac;strokeColor=#b46504;" vertex="1" parent="dNxyNK7c78bLwvsdeMH5-11">
          <mxGeometry x="10" y="270" width="120" height="50" as="geometry" />
        </mxCell>
        <mxCell id="NaS09oquVCrZTC2XUynY-18" value="王渡云" style="text;html=1;align=center;verticalAlign=middle;whiteSpace=wrap;rounded=0;" vertex="1" parent="NaS09oquVCrZTC2XUynY-17">
          <mxGeometry x="30" y="20" width="60" height="30" as="geometry" />
        </mxCell>
        <mxCell id="NaS09oquVCrZTC2XUynY-13" value="高层领导" style="swimlane;fillColor=#b0e3e6;strokeColor=#0e8088;" vertex="1" parent="dNxyNK7c78bLwvsdeMH5-11">
          <mxGeometry x="430" y="140" width="120" height="50" as="geometry" />
        </mxCell>
        <mxCell id="NaS09oquVCrZTC2XUynY-14" value="岳晴天" style="text;html=1;align=center;verticalAlign=middle;whiteSpace=wrap;rounded=0;" vertex="1" parent="NaS09oquVCrZTC2XUynY-13">
          <mxGeometry x="30" y="20" width="60" height="30" as="geometry" />
        </mxCell>
        <mxCell id="NaS09oquVCrZTC2XUynY-26" style="edgeStyle=orthogonalEdgeStyle;rounded=0;orthogonalLoop=1;jettySize=auto;html=1;entryX=0.5;entryY=0;entryDx=0;entryDy=0;fontSize=12;startSize=8;endSize=8;exitX=0.5;exitY=1;exitDx=0;exitDy=0;" edge="1" parent="dNxyNK7c78bLwvsdeMH5-11" source="NaS09oquVCrZTC2XUynY-12" target="NaS09oquVCrZTC2XUynY-19">
          <mxGeometry relative="1" as="geometry" />
        </mxCell>
        <mxCell id="NaS09oquVCrZTC2XUynY-27" style="edgeStyle=orthogonalEdgeStyle;rounded=0;orthogonalLoop=1;jettySize=auto;html=1;exitX=0.5;exitY=1;exitDx=0;exitDy=0;entryX=0.5;entryY=0;entryDx=0;entryDy=0;fontFamily=Helvetica;fontSize=12;fontColor=default;fontStyle=1;horizontal=1;startSize=8;endSize=8;" edge="1" parent="dNxyNK7c78bLwvsdeMH5-11" source="NaS09oquVCrZTC2XUynY-12" target="NaS09oquVCrZTC2XUynY-13">
          <mxGeometry relative="1" as="geometry" />
        </mxCell>
        <mxCell id="NaS09oquVCrZTC2XUynY-37" value="程序员" style="swimlane;fillColor=#fad7ac;strokeColor=#b46504;" vertex="1" parent="dNxyNK7c78bLwvsdeMH5-11">
          <mxGeometry x="430" y="270" width="140" height="90" as="geometry" />
        </mxCell>
        <mxCell id="NaS09oquVCrZTC2XUynY-38" value="岳晴天、焦宇彤、王渡云、彭子曦" style="text;html=1;align=center;verticalAlign=middle;whiteSpace=wrap;rounded=0;" vertex="1" parent="NaS09oquVCrZTC2XUynY-37">
          <mxGeometry x="20" y="20" width="100" height="70" as="geometry" />
        </mxCell>
        <mxCell id="NaS09oquVCrZTC2XUynY-31" value="系统设计员" style="swimlane;fillColor=#fad7ac;strokeColor=#b46504;" vertex="1" parent="dNxyNK7c78bLwvsdeMH5-11">
          <mxGeometry x="590" y="270" width="120" height="50" as="geometry" />
        </mxCell>
        <mxCell id="NaS09oquVCrZTC2XUynY-32" value="岳晴天、王渡云" style="text;html=1;align=center;verticalAlign=middle;whiteSpace=wrap;rounded=0;" vertex="1" parent="NaS09oquVCrZTC2XUynY-31">
          <mxGeometry x="10" y="20" width="100" height="30" as="geometry" />
        </mxCell>
        <mxCell id="NaS09oquVCrZTC2XUynY-29" value="测试员" style="swimlane;fillColor=#fad7ac;strokeColor=#b46504;" vertex="1" parent="dNxyNK7c78bLwvsdeMH5-11">
          <mxGeometry x="150" y="270" width="120" height="50" as="geometry" />
        </mxCell>
        <mxCell id="NaS09oquVCrZTC2XUynY-30" value="焦宇彤" style="text;html=1;align=center;verticalAlign=middle;whiteSpace=wrap;rounded=0;" vertex="1" parent="NaS09oquVCrZTC2XUynY-29">
          <mxGeometry x="30" y="20" width="60" height="30" as="geometry" />
        </mxCell>
        <mxCell id="NaS09oquVCrZTC2XUynY-33" value="DBA" style="swimlane;fillColor=#fad7ac;strokeColor=#b46504;" vertex="1" parent="dNxyNK7c78bLwvsdeMH5-11">
          <mxGeometry x="290" y="270" width="120" height="50" as="geometry" />
        </mxCell>
        <mxCell id="NaS09oquVCrZTC2XUynY-34" value="王渡云" style="text;html=1;align=center;verticalAlign=middle;whiteSpace=wrap;rounded=0;" vertex="1" parent="NaS09oquVCrZTC2XUynY-33">
          <mxGeometry x="30" y="20" width="60" height="30" as="geometry" />
        </mxCell>
        <mxCell id="NaS09oquVCrZTC2XUynY-41" style="edgeStyle=orthogonalEdgeStyle;shape=connector;rounded=0;orthogonalLoop=1;jettySize=auto;html=1;strokeColor=default;align=center;verticalAlign=middle;fontFamily=Helvetica;fontSize=12;fontColor=default;fontStyle=1;labelBackgroundColor=default;horizontal=1;startSize=8;endArrow=classic;endSize=8;exitX=0.5;exitY=1;exitDx=0;exitDy=0;" edge="1" parent="dNxyNK7c78bLwvsdeMH5-11" source="NaS09oquVCrZTC2XUynY-14" target="NaS09oquVCrZTC2XUynY-17">
          <mxGeometry relative="1" as="geometry" />
        </mxCell>
        <mxCell id="NaS09oquVCrZTC2XUynY-42" style="edgeStyle=orthogonalEdgeStyle;shape=connector;rounded=0;orthogonalLoop=1;jettySize=auto;html=1;exitX=0.5;exitY=1;exitDx=0;exitDy=0;strokeColor=default;align=center;verticalAlign=middle;fontFamily=Helvetica;fontSize=12;fontColor=default;fontStyle=1;labelBackgroundColor=default;horizontal=1;startSize=8;endArrow=classic;endSize=8;" edge="1" parent="dNxyNK7c78bLwvsdeMH5-11" source="NaS09oquVCrZTC2XUynY-14" target="NaS09oquVCrZTC2XUynY-29">
          <mxGeometry relative="1" as="geometry" />
        </mxCell>
        <mxCell id="NaS09oquVCrZTC2XUynY-43" style="edgeStyle=orthogonalEdgeStyle;shape=connector;rounded=0;orthogonalLoop=1;jettySize=auto;html=1;exitX=0.5;exitY=1;exitDx=0;exitDy=0;strokeColor=default;align=center;verticalAlign=middle;fontFamily=Helvetica;fontSize=12;fontColor=default;fontStyle=1;labelBackgroundColor=default;horizontal=1;startSize=8;endArrow=classic;endSize=8;" edge="1" parent="dNxyNK7c78bLwvsdeMH5-11" source="NaS09oquVCrZTC2XUynY-14" target="NaS09oquVCrZTC2XUynY-33">
          <mxGeometry relative="1" as="geometry" />
        </mxCell>
        <mxCell id="NaS09oquVCrZTC2XUynY-44" style="edgeStyle=orthogonalEdgeStyle;shape=connector;rounded=0;orthogonalLoop=1;jettySize=auto;html=1;exitX=0.5;exitY=1;exitDx=0;exitDy=0;entryX=0.5;entryY=0;entryDx=0;entryDy=0;strokeColor=default;align=center;verticalAlign=middle;fontFamily=Helvetica;fontSize=12;fontColor=default;fontStyle=1;labelBackgroundColor=default;horizontal=1;startSize=8;endArrow=classic;endSize=8;" edge="1" parent="dNxyNK7c78bLwvsdeMH5-11" source="NaS09oquVCrZTC2XUynY-14" target="NaS09oquVCrZTC2XUynY-37">
          <mxGeometry relative="1" as="geometry" />
        </mxCell>
        <mxCell id="NaS09oquVCrZTC2XUynY-45" style="edgeStyle=orthogonalEdgeStyle;shape=connector;rounded=0;orthogonalLoop=1;jettySize=auto;html=1;exitX=0.5;exitY=1;exitDx=0;exitDy=0;entryX=0.5;entryY=0;entryDx=0;entryDy=0;strokeColor=default;align=center;verticalAlign=middle;fontFamily=Helvetica;fontSize=12;fontColor=default;fontStyle=1;labelBackgroundColor=default;horizontal=1;startSize=8;endArrow=classic;endSize=8;" edge="1" parent="dNxyNK7c78bLwvsdeMH5-11" source="NaS09oquVCrZTC2XUynY-14" target="NaS09oquVCrZTC2XUynY-31">
          <mxGeometry relative="1" as="geometry" />
        </mxCell>
      </root>
    </mxGraphModel>
  </diagram>
</mxfile>
